<?xml version="1.0" standalone="no"?>
<!DOCTYPE svg PUBLIC "-//W3C//DTD SVG 20010904//EN"
 "http://www.w3.org/TR/2001/REC-SVG-20010904/DTD/svg10.dtd">
<svg version="1.0" xmlns="http://www.w3.org/2000/svg"
 width="512.000000pt" height="512.000000pt" viewBox="0 0 512.000000 512.000000"
 preserveAspectRatio="xMidYMid meet">

<g transform="translate(0.000000,512.000000) scale(0.100000,-0.100000)"
fill="#ffffff" stroke="none">
<path d="M2370 5113 c-559 -53 -1006 -230 -1417 -562 -779 -627 -1118 -1646
-873 -2621 44 -175 103 -337 180 -492 l38 -76 -53 -35 c-135 -91 -214 -270
-187 -427 24 -131 52 -172 282 -405 230 -232 273 -264 368 -272 97 -9 149 18
271 141 l104 104 81 -53 c555 -360 1216 -491 1871 -370 1028 191 1850 1013
2040 2039 121 656 -10 1317 -370 1872 l-53 82 70 68 c130 129 170 211 170 354
1 153 -67 278 -199 369 -110 75 -290 86 -418 25 l-52 -24 -54 24 c-119 54
-248 55 -367 1 l-58 -26 -118 57 c-233 110 -522 189 -804 219 -122 13 -357 18
-452 8z m405 -203 c147 -14 274 -38 415 -77 120 -33 364 -124 394 -147 13 -9
11 -21 -11 -86 -22 -65 -25 -87 -21 -167 8 -154 28 -185 287 -446 245 -247
277 -270 383 -269 86 1 130 22 215 104 l72 70 51 -78 c66 -103 169 -313 216
-439 46 -126 97 -326 120 -475 25 -162 25 -509 0 -675 -103 -679 -472 -1259
-1041 -1637 -279 -185 -611 -311 -960 -364 -165 -25 -513 -25 -673 0 -349 54
-649 167 -940 353 l-54 34 52 54 c28 30 65 85 83 122 30 64 32 75 32 178 0
108 -1 113 -37 186 -46 93 -122 168 -215 212 -64 30 -75 32 -178 32 -102 0
-115 -2 -176 -31 -58 -28 -68 -30 -85 -17 -25 18 -139 53 -174 53 -27 0 -33 9
-88 122 -329 677 -320 1470 25 2128 444 848 1367 1351 2308 1260z m1315 -241
c19 -11 50 -31 69 -44 49 -36 87 -32 149 14 72 55 139 69 216 47 76 -23 138
-83 160 -157 20 -65 20 -73 0 -140 -15 -50 -32 -70 -218 -257 -110 -112 -210
-207 -221 -212 -11 -4 -31 -3 -46 2 -14 5 -111 95 -217 201 -209 211 -231 243
-232 338 0 175 189 291 340 208z m-3514 -3484 c20 -8 52 -28 72 -43 64 -50 99
-49 170 7 110 86 263 62 345 -56 41 -57 48 -148 18 -219 -30 -68 -413 -454
-452 -454 -18 0 -74 50 -231 208 -113 114 -213 221 -221 237 -56 113 -9 253
105 309 60 30 138 35 194 11z"/>
<path d="M1513 3496 c-200 -49 -343 -212 -367 -419 -9 -80 7 -133 47 -158 44
-28 89 -20 162 29 90 60 151 77 275 76 119 0 163 -14 271 -84 55 -36 69 -41
104 -36 77 10 106 76 86 199 -45 274 -314 457 -578 393z"/>
<path d="M3379 3492 c-181 -49 -320 -203 -350 -389 -20 -123 9 -189 86 -199
35 -5 49 0 104 36 91 59 154 81 247 87 120 8 228 -23 322 -94 73 -55 161 -32
182 47 13 50 0 152 -30 233 -42 112 -176 237 -293 272 -81 25 -191 28 -268 7z"/>
<path d="M1655 2225 c-52 -19 -111 -82 -126 -136 -14 -52 0 -212 27 -319 74
-291 280 -538 560 -672 142 -68 230 -89 397 -95 159 -6 248 5 387 49 333 106
539 313 644 648 34 107 59 269 53 337 -15 149 -141 225 -298 180 -105 -30
-296 -66 -439 -83 -111 -12 -196 -15 -365 -11 -250 6 -359 20 -590 77 -176 44
-192 46 -250 25z m130 -200 c203 -62 428 -95 695 -102 303 -8 523 15 798 82
57 14 108 25 114 25 15 0 1 -115 -27 -228 -47 -183 -157 -357 -279 -441 l-42
-29 -28 43 c-33 53 -118 132 -178 168 -85 49 -165 70 -273 70 -64 1 -118 -5
-151 -15 -116 -36 -225 -110 -288 -197 -21 -28 -41 -51 -46 -51 -4 0 -33 21
-65 47 -118 98 -225 269 -264 424 -23 90 -37 219 -25 219 5 0 32 -7 59 -15z"/>
</g>
</svg>
