<?xml version="1.0" standalone="no"?>
<!DOCTYPE svg PUBLIC "-//W3C//DTD SVG 20010904//EN"
 "http://www.w3.org/TR/2001/REC-SVG-20010904/DTD/svg10.dtd">
<svg version="1.0" xmlns="http://www.w3.org/2000/svg"
 width="416.000000pt" height="490.000000pt" viewBox="0 0 416.000000 490.000000"
 preserveAspectRatio="xMidYMid meet">

<g transform="translate(0.000000,490.000000) scale(0.100000,-0.100000)"
fill="#000000" stroke="none">
<path d="M300 4889 c-115 -23 -227 -116 -272 -227 l-23 -57 0 -2155 0 -2155
24 -60 c33 -82 124 -173 206 -206 l60 -24 1479 -3 c974 -1 1498 1 1535 8 160
29 277 153 301 316 6 43 10 577 10 1419 l0 1350 62 12 c34 7 94 28 133 47 182
91 299 248 332 448 14 82 14 101 1 184 -18 105 -54 191 -116 273 -82 109 -219
196 -346 221 l-66 14 0 105 c0 58 -5 137 -10 175 -24 162 -141 286 -299 316
-67 13 -2946 12 -3011 -1z m3019 -125 c64 -19 122 -69 153 -132 20 -42 22 -62
23 -191 l0 -143 -75 -19 c-112 -28 -193 -73 -274 -149 -131 -125 -190 -260
-190 -435 0 -75 5 -118 22 -170 63 -205 251 -378 452 -418 l65 -13 0 -1389 0
-1390 -23 -47 c-13 -26 -41 -63 -62 -82 -78 -70 19 -67 -1626 -64 -1420 3
-1480 4 -1514 22 -49 26 -98 74 -123 121 l-22 40 0 2145 c0 2073 1 2146 19
2180 37 71 102 124 171 141 17 4 687 7 1491 8 1294 1 1466 -1 1513 -15z m479
-886 c33 -33 15 -60 -145 -220 -119 -119 -164 -158 -183 -158 -37 0 -170 135
-170 172 0 33 37 62 66 52 10 -4 39 -26 64 -50 l45 -44 130 130 c132 132 161
150 193 118z"/>
<path d="M1125 4595 c-29 -28 -31 -42 -9 -73 l15 -22 483 0 c511 0 506 0 521
47 4 17 -1 29 -19 48 l-25 25 -471 0 -471 0 -24 -25z"/>
<path d="M2336 4599 c-30 -23 -33 -45 -10 -77 13 -19 24 -22 84 -22 78 0 100
13 100 60 0 40 -32 60 -96 60 -37 0 -59 -6 -78 -21z"/>
<path d="M1686 4066 c-77 -32 -147 -101 -181 -179 -24 -53 -27 -69 -23 -146 3
-71 9 -95 33 -139 95 -174 315 -229 479 -120 210 139 187 463 -41 574 -81 40
-186 44 -267 10z"/>
<path d="M1687 3345 c-253 -69 -455 -366 -457 -671 0 -90 -41 -84 582 -84 642
0 585 -12 573 122 -22 262 -163 496 -357 594 -103 52 -238 67 -341 39z"/>
<path d="M700 2208 c-25 -28 -26 -52 0 -78 20 -20 33 -20 1109 -20 977 0 1091
2 1105 16 25 24 24 58 -1 87 -15 16 -81 17 -1104 17 l-1088 0 -21 -22z"/>
<path d="M700 1680 c-11 -11 -20 -29 -20 -40 0 -11 9 -29 20 -40 20 -20 33
-20 1109 -20 l1090 0 20 26 c21 26 19 46 -7 77 -14 16 -79 17 -1104 17 -1075
0 -1088 0 -1108 -20z"/>
<path d="M1240 1150 c-11 -11 -20 -29 -20 -40 0 -11 9 -29 20 -40 20 -20 33
-20 570 -20 537 0 550 0 570 20 11 11 20 29 20 40 0 11 -9 29 -20 40 -20 20
-33 20 -570 20 -537 0 -550 0 -570 -20z"/>
<path d="M1758 650 c-167 -50 -203 -264 -63 -362 62 -43 130 -48 200 -13 73
35 107 85 113 164 3 44 -1 67 -16 98 -48 92 -145 140 -234 113z"/>
</g>
</svg>
