<?xml version="1.0" standalone="no"?>
<!DOCTYPE svg PUBLIC "-//W3C//DTD SVG 20010904//EN"
 "http://www.w3.org/TR/2001/REC-SVG-20010904/DTD/svg10.dtd">
<svg version="1.0" xmlns="http://www.w3.org/2000/svg"
 width="302.000000pt" height="262.000000pt" viewBox="0 0 302.000000 262.000000"
 preserveAspectRatio="xMidYMid meet">

<g transform="translate(0.000000,262.000000) scale(0.100000,-0.100000)"
fill="#000000" stroke="none">
<path d="M1745 2596 c-38 -17 -60 -41 -80 -89 -12 -29 -15 -84 -15 -282 l0
-245 -661 0 c-454 0 -667 -3 -681 -11 -48 -26 -48 -29 -48 -804 l0 -725 -114
0 c-89 0 -116 -3 -126 -15 -20 -24 -6 -117 28 -188 44 -92 91 -141 180 -184
l76 -38 1160 0 1161 0 58 27 c119 56 207 171 228 296 15 99 12 102 -131 102
l-120 0 0 645 0 645 108 0 c124 0 174 17 213 71 l24 34 0 337 c0 326 -1 337
-21 365 -11 15 -36 38 -54 51 l-33 22 -561 0 c-443 -1 -567 -4 -591 -14z m649
-308 c8 -13 8 -23 0 -35 -10 -16 -34 -18 -229 -21 -224 -2 -245 1 -245 37 0
39 17 41 244 39 196 -3 220 -5 230 -20z m336 8 c6 -8 10 -25 8 -38 -3 -22 -7
-23 -110 -26 -99 -2 -108 -1 -118 18 -8 14 -8 26 0 40 10 18 21 20 109 20 74
0 102 -4 111 -14z m-236 -192 c20 -20 20 -33 -1 -56 -15 -17 -37 -18 -279 -18
-225 0 -265 2 -278 16 -9 8 -16 22 -16 29 0 7 7 21 16 29 13 14 53 16 279 16
226 0 266 -2 279 -16z m-839 -236 c12 -54 43 -95 89 -117 35 -17 61 -21 154
-21 l112 0 0 -112 c0 -90 3 -115 17 -130 33 -36 57 -23 205 112 l143 129 103
1 102 0 -2 -642 -3 -643 -1112 -3 -1113 -2 0 730 0 730 649 0 649 0 7 -32z
m1175 -1516 c0 -5 -7 -30 -16 -56 -22 -64 -100 -147 -166 -177 l-53 -24 -1135
0 -1135 0 -50 25 c-87 43 -155 126 -171 209 l-6 31 1366 0 c751 0 1366 -4
1366 -8z"/>
<path d="M1194 1776 c-64 -16 -134 -56 -169 -98 -104 -124 -94 -351 22 -505
21 -29 24 -41 21 -110 l-3 -77 -78 -16 c-86 -18 -113 -36 -103 -68 10 -30 35
-34 107 -17 93 22 108 19 178 -30 88 -62 122 -61 213 2 l68 46 72 -13 c106
-18 240 -65 261 -91 14 -17 17 -37 15 -88 l-3 -66 -522 -3 -523 -2 0 73 c0 68
2 75 30 102 33 32 38 56 15 75 -21 17 -56 6 -90 -30 -30 -31 -30 -33 -33 -161
l-4 -129 27 -10 c35 -13 1124 -14 1159 0 26 9 26 10 26 127 0 168 -15 189
-172 242 -46 16 -117 34 -156 41 l-72 13 0 79 c0 73 2 82 35 131 55 83 78 158
78 262 1 72 -3 100 -21 139 -47 103 -111 157 -221 182 -67 16 -90 16 -157 0z
m210 -110 c56 -33 99 -101 100 -160 l1 -41 -68 -3 c-74 -3 -159 16 -215 49
-42 24 -54 24 -78 -2 -17 -19 -84 -59 -99 -59 -3 0 -5 17 -5 38 0 47 45 139
81 165 76 55 202 61 283 13z m-134 -269 c37 -13 84 -20 142 -21 101 -1 101 -2
64 -82 -82 -176 -235 -214 -346 -88 -37 42 -84 139 -76 153 4 5 19 12 35 16
15 3 43 17 62 30 19 13 41 21 49 18 8 -3 40 -15 70 -26z m-39 -349 c45 -10 88
-5 142 17 15 6 17 1 17 -46 -1 -54 -1 -54 -55 -91 -29 -21 -57 -38 -60 -38 -4
0 -33 19 -66 41 -59 42 -59 42 -59 92 0 43 2 48 18 42 9 -3 38 -11 63 -17z"/>
</g>
</svg>
